<svg width="24" height="24" viewBox="0 0 24 24" fill="none" xmlns="http://www.w3.org/2000/svg">
<path d="M12 1.5C13.3789 1.5 14.7443 1.77159 16.0182 2.29927C17.2921 2.82694 18.4496 3.60036 19.4246 4.57538C20.3996 5.55039 21.1731 6.70791 21.7007 7.98182C22.2284 9.25574 22.5 10.6211 22.5 12C22.5 13.3789 22.2284 14.7443 21.7007 16.0182C21.1731 17.2921 20.3996 18.4496 19.4246 19.4246C18.4496 20.3996 17.2921 21.1731 16.0182 21.7007C14.7443 22.2284 13.3789 22.5 12 22.5V1.5ZM12 0C8.8174 0 5.76516 1.26428 3.51472 3.51472C1.26428 5.76516 0 8.8174 0 12C0 15.1826 1.26428 18.2348 3.51472 20.4853C5.76516 22.7357 8.8174 24 12 24C15.1826 24 18.2348 22.7357 20.4853 20.4853C22.7357 18.2348 24 15.1826 24 12C24 8.8174 22.7357 5.76516 20.4853 3.51472C18.2348 1.26428 15.1826 0 12 0Z" fill="#20C56C"/>
</svg>
